<?xml version="1.0" ?><svg id="Layer_1" style="enable-background:new 0 0 64 64;" version="1.1" viewBox="0 0 64 64" xml:space="preserve" xmlns="http://www.w3.org/2000/svg" xmlns:xlink="http://www.w3.org/1999/xlink"><style type="text/css">
	.st0{fill:#FFFFFF;}
	.st1{fill:#101820;}
</style><g><g><circle class="st0" cx="32" cy="32" r="32"/></g><g><path class="st1" d="M25.157,12.5c-0.084,0-0.169-0.021-0.248-0.066c-0.239-0.137-0.323-0.443-0.186-0.683    c1.693-2.958,4.12-5.44,7.02-7.18c0.158-0.095,0.356-0.095,0.515,0c2.213,1.328,4.122,3.054,5.673,5.129    c0.166,0.221,0.12,0.535-0.101,0.7c-0.221,0.166-0.534,0.12-0.7-0.101c-1.413-1.89-3.138-3.475-5.13-4.713    c-2.64,1.643-4.851,3.941-6.409,6.663C25.499,12.41,25.33,12.5,25.157,12.5z"/></g><g><path class="st1" d="M40.834,33.642c-0.16,0-0.314-0.077-0.41-0.213c-3.06-4.367-6.761-7.539-11.648-9.982    c-2.309-1.155-4.433-2.59-6.313-4.266c-0.125-0.112-0.187-0.279-0.162-0.446c0.204-1.392,0.555-2.76,1.043-4.067    c0.061-0.164,0.203-0.283,0.374-0.316c0.172-0.031,0.348,0.026,0.464,0.155c2.232,2.46,4.938,4.494,8.041,6.045    c3.652,1.826,6.681,4.073,9.262,6.868c0.092,0.099,0.139,0.231,0.132,0.366l-0.284,5.382c-0.011,0.213-0.157,0.396-0.362,0.454    C40.927,33.636,40.88,33.642,40.834,33.642z M23.332,18.614c1.764,1.541,3.745,2.865,5.892,3.938    c4.605,2.303,8.191,5.234,11.186,9.16l0.199-3.768c-2.466-2.634-5.357-4.761-8.832-6.498c-2.955-1.478-5.563-3.379-7.764-5.659    C23.714,16.708,23.486,17.655,23.332,18.614z"/></g><g><path class="st1" d="M39.955,49.049c-0.195,0-0.375-0.114-0.456-0.295c-3.825-8.533-8.527-13.708-15.723-17.306    c-0.287-0.144-0.558-0.292-0.829-0.441l-0.162-0.089c-0.152-0.083-0.25-0.239-0.259-0.412l-0.213-4.04    c-0.01-0.193,0.092-0.375,0.262-0.466c0.169-0.091,0.377-0.078,0.534,0.037c1.294,0.953,2.679,1.799,4.115,2.517    c5.846,2.923,10.167,6.977,13.598,12.757c0.05,0.085,0.074,0.183,0.069,0.282l-0.293,5.566c-0.026,0.487-0.085,0.971-0.146,1.454    c-0.028,0.223-0.201,0.399-0.422,0.432C40.004,49.047,39.979,49.049,39.955,49.049z M23.51,30.174    c0.233,0.128,0.467,0.255,0.713,0.378c6.931,3.465,11.611,8.336,15.399,16.104l0.261-4.965c-3.316-5.54-7.485-9.433-13.107-12.244    l0,0c-1.177-0.588-2.32-1.26-3.41-2.004L23.51,30.174z"/></g><g><path class="st1" d="M34.413,53.5c-0.163,0-0.322-0.079-0.418-0.225c-2.837-4.304-6.194-7.463-10.563-9.94    c-0.148-0.084-0.244-0.238-0.253-0.409l-0.195-3.717c-0.009-0.183,0.082-0.356,0.238-0.453c0.156-0.095,0.352-0.098,0.511-0.007    c0.477,0.275,0.971,0.543,1.491,0.803c5.645,2.822,9.839,6.666,13.202,12.096c0.145,0.235,0.073,0.543-0.162,0.688    c-0.234,0.146-0.542,0.073-0.688-0.162c-3.26-5.266-7.327-8.992-12.798-11.728c-0.254-0.127-0.502-0.256-0.746-0.387l0.133,2.542    c4.396,2.538,7.79,5.761,10.666,10.123c0.152,0.231,0.088,0.541-0.142,0.693C34.603,53.473,34.507,53.5,34.413,53.5z"/></g><g><path class="st1" d="M23.927,27.719c-0.112,0-0.226-0.038-0.319-0.116c-0.212-0.176-0.241-0.492-0.064-0.704    c1.348-1.621,2.831-3.181,4.406-4.635c0.203-0.187,0.52-0.175,0.707,0.028c0.188,0.203,0.175,0.52-0.028,0.707    c-1.544,1.425-2.996,2.952-4.316,4.54C24.213,27.658,24.071,27.719,23.927,27.719z"/></g><g><path class="st1" d="M30.872,20.904c-0.146,0-0.291-0.063-0.39-0.186c-0.173-0.215-0.14-0.53,0.075-0.703    c0.832-0.671,1.707-1.335,2.601-1.974c2.139-1.528,4.139-3.286,5.943-5.224c0.188-0.201,0.506-0.212,0.707-0.025    c0.202,0.188,0.213,0.504,0.025,0.707c-1.85,1.986-3.9,3.788-6.094,5.355c-0.877,0.627-1.737,1.279-2.554,1.938    C31.093,20.868,30.981,20.904,30.872,20.904z"/></g><g><path class="st1" d="M22.707,24.944c-0.111,0-0.224-0.037-0.317-0.114c-0.213-0.175-0.244-0.49-0.069-0.704    c0.957-1.166,1.986-2.304,3.061-3.385c0.195-0.195,0.512-0.197,0.707-0.002c0.196,0.194,0.197,0.511,0.002,0.707    c-1.052,1.059-2.06,2.174-2.997,3.315C22.995,24.882,22.852,24.944,22.707,24.944z"/></g><g><path class="st1" d="M28.236,19.25c-0.139,0-0.277-0.058-0.376-0.17c-0.182-0.208-0.161-0.524,0.046-0.706    c1.316-1.153,2.735-2.274,4.216-3.332c1.447-1.033,2.838-2.179,4.137-3.405c0.201-0.188,0.518-0.18,0.707,0.021    c0.189,0.201,0.18,0.517-0.021,0.707c-1.332,1.257-2.759,2.432-4.243,3.491c-1.455,1.04-2.847,2.14-4.138,3.271    C28.471,19.208,28.354,19.25,28.236,19.25z"/></g><g><path class="st1" d="M22.633,20.779c-0.122,0-0.244-0.044-0.34-0.134c-0.202-0.188-0.214-0.504-0.026-0.707    c0.278-0.299,0.561-0.597,0.851-0.894c0.194-0.196,0.51-0.2,0.707-0.008c0.198,0.193,0.202,0.51,0.009,0.707    c-0.284,0.291-0.562,0.583-0.834,0.875C22.9,20.725,22.767,20.779,22.633,20.779z"/></g><g><path class="st1" d="M26,17.488c-0.138,0-0.275-0.057-0.374-0.168c-0.183-0.207-0.165-0.522,0.042-0.706    c1.396-1.24,2.907-2.442,4.49-3.573c0.636-0.454,1.268-0.936,1.88-1.43c0.215-0.173,0.53-0.14,0.703,0.074    c0.174,0.215,0.141,0.53-0.074,0.703c-0.627,0.507-1.276,1.001-1.928,1.466c-1.555,1.111-3.038,2.291-4.407,3.507    C26.236,17.447,26.118,17.488,26,17.488z"/></g><g><path class="st1" d="M24.041,15.589c-0.143,0-0.284-0.061-0.383-0.178c-0.178-0.211-0.15-0.527,0.061-0.705    c1.086-0.914,2.244-1.811,3.439-2.665c0.205-0.146,0.407-0.294,0.606-0.442c0.221-0.166,0.535-0.118,0.7,0.103    c0.165,0.222,0.119,0.535-0.103,0.7c-0.205,0.152-0.412,0.304-0.623,0.454c-1.174,0.839-2.31,1.719-3.376,2.616    C24.268,15.55,24.154,15.589,24.041,15.589z"/></g><g><path class="st1" d="M23.117,32.723c-0.108,0-0.217-0.035-0.308-0.106c-0.217-0.17-0.255-0.485-0.085-0.702    c0.314-0.401,0.638-0.8,0.972-1.196c0.178-0.211,0.493-0.239,0.704-0.062c0.212,0.177,0.239,0.493,0.062,0.704    c-0.326,0.389-0.643,0.779-0.95,1.171C23.412,32.657,23.265,32.723,23.117,32.723z"/></g><g><path class="st1" d="M26.26,29.116c-0.125,0-0.25-0.046-0.347-0.14c-0.199-0.192-0.205-0.508-0.013-0.707    c1.514-1.57,3.179-3.08,4.949-4.487c0.216-0.173,0.531-0.137,0.703,0.08s0.136,0.531-0.08,0.703    c-1.736,1.381-3.368,2.861-4.852,4.399C26.521,29.065,26.391,29.116,26.26,29.116z"/></g><g><path class="st1" d="M33.976,22.565c-0.153,0-0.305-0.07-0.402-0.203c-0.165-0.222-0.118-0.535,0.104-0.699    c2.362-1.746,4.542-3.773,6.48-6.026c0.179-0.209,0.496-0.233,0.705-0.053c0.209,0.18,0.233,0.496,0.053,0.705    c-1.986,2.309-4.222,4.387-6.643,6.177C34.184,22.533,34.079,22.565,33.976,22.565z"/></g><g><path class="st1" d="M23.373,37.601c-0.092,0-0.185-0.025-0.268-0.078c-0.233-0.148-0.302-0.457-0.154-0.69    c1.029-1.62,2.16-3.186,3.361-4.653c0.174-0.213,0.489-0.245,0.704-0.07c0.213,0.175,0.245,0.49,0.07,0.704    c-1.175,1.436-2.282,2.969-3.291,4.555C23.7,37.519,23.539,37.601,23.373,37.601z"/></g><g><path class="st1" d="M28.883,30.511c-0.123,0-0.247-0.045-0.343-0.136c-0.201-0.189-0.21-0.506-0.021-0.707    c1.433-1.52,3.006-2.986,4.675-4.357c0.214-0.176,0.529-0.144,0.704,0.069c0.175,0.213,0.145,0.528-0.069,0.704    c-1.637,1.345-3.179,2.782-4.583,4.271C29.148,30.458,29.016,30.511,28.883,30.511z"/></g><g><path class="st1" d="M36.367,23.968c-0.158,0-0.31-0.056-0.397-0.177c-0.161-0.225-0.181-0.485,0.043-0.646    c0,0,0.145-0.104,0.146-0.104c1.686-1.205,3.292-2.557,4.774-4.02c0.196-0.194,0.512-0.192,0.707,0.005    c0.194,0.196,0.192,0.513-0.005,0.707c-1.519,1.5-3.166,2.887-4.896,4.122C36.636,23.929,36.5,23.968,36.367,23.968z"/></g><g><path class="st1" d="M24.832,40.416c-0.088,0-0.178-0.023-0.259-0.073c-0.236-0.144-0.311-0.451-0.167-0.687    c1.269-2.085,2.692-4.073,4.231-5.909c0.178-0.21,0.493-0.24,0.705-0.062c0.211,0.178,0.239,0.493,0.062,0.705    c-1.507,1.797-2.901,3.744-4.143,5.786C25.166,40.33,25.001,40.416,24.832,40.416z"/></g><g><path class="st1" d="M31.294,32.044c-0.125,0-0.251-0.047-0.348-0.141c-0.199-0.192-0.204-0.509-0.012-0.707    c1.389-1.434,2.906-2.819,4.509-4.118c0.215-0.173,0.529-0.14,0.704,0.074c0.174,0.215,0.141,0.53-0.074,0.704    c-1.573,1.273-3.06,2.631-4.42,4.036C31.556,31.994,31.425,32.044,31.294,32.044z"/></g><g><path class="st1" d="M38.589,25.823c-0.155,0-0.308-0.072-0.406-0.207c-0.162-0.224-0.111-0.537,0.112-0.698    c0.941-0.68,1.862-1.41,2.739-2.17c0.208-0.182,0.524-0.159,0.705,0.05c0.181,0.208,0.159,0.524-0.05,0.705    c-0.898,0.78-1.843,1.529-2.808,2.226C38.792,25.792,38.69,25.823,38.589,25.823z"/></g><g><path class="st1" d="M23.869,47.018c-0.076,0-0.153-0.017-0.225-0.054c-0.246-0.125-0.345-0.425-0.221-0.672    c0.459-0.909,0.943-1.805,1.44-2.665c0.138-0.24,0.444-0.322,0.683-0.183c0.239,0.138,0.321,0.444,0.183,0.683    c-0.488,0.844-0.963,1.724-1.414,2.616C24.228,46.917,24.051,47.018,23.869,47.018z"/></g><g><path class="st1" d="M27.029,41.596c-0.096,0-0.192-0.027-0.278-0.085c-0.229-0.154-0.29-0.464-0.136-0.694    c1.259-1.876,2.659-3.674,4.161-5.341c0.185-0.207,0.5-0.222,0.706-0.037c0.205,0.185,0.222,0.501,0.037,0.706    c-1.47,1.633-2.841,3.392-4.074,5.23C27.349,41.518,27.19,41.596,27.029,41.596z"/></g><g><path class="st1" d="M33.571,33.808c-0.131,0-0.262-0.051-0.36-0.154c-0.191-0.199-0.185-0.516,0.014-0.707    c1.364-1.311,2.848-2.583,4.409-3.779c0.221-0.167,0.534-0.125,0.701,0.093c0.168,0.219,0.126,0.533-0.093,0.701    c-1.532,1.174-2.987,2.421-4.325,3.706C33.821,33.761,33.696,33.808,33.571,33.808z"/></g><g><path class="st1" d="M24.556,51.725c-0.067,0-0.136-0.014-0.202-0.042c-0.252-0.112-0.367-0.407-0.255-0.66    c0.924-2.089,1.899-3.996,2.984-5.828c0.14-0.237,0.449-0.316,0.685-0.176c0.238,0.141,0.316,0.447,0.176,0.685    c-1.063,1.798-2.022,3.671-2.929,5.724C24.931,51.614,24.748,51.725,24.556,51.725z"/></g><g><path class="st1" d="M29.346,43.08c-0.098,0-0.197-0.029-0.283-0.088c-0.228-0.157-0.285-0.468-0.128-0.695    c1.167-1.692,2.456-3.324,3.833-4.85c0.185-0.206,0.502-0.221,0.706-0.036c0.205,0.185,0.221,0.501,0.036,0.706    c-1.348,1.494-2.61,3.092-3.752,4.748C29.661,43.004,29.504,43.08,29.346,43.08z"/></g><g><path class="st1" d="M35.617,35.731c-0.132,0-0.263-0.052-0.361-0.154c-0.191-0.2-0.184-0.516,0.016-0.707    c1.302-1.245,2.707-2.451,4.176-3.584c0.22-0.168,0.533-0.128,0.702,0.09c0.168,0.219,0.128,0.533-0.09,0.702    c-1.441,1.112-2.819,2.294-4.096,3.515C35.865,35.685,35.741,35.731,35.617,35.731z"/></g><g><path class="st1" d="M26.628,52.5c-0.074,0-0.149-0.017-0.221-0.051c-0.248-0.122-0.35-0.422-0.228-0.67    c0.86-1.746,1.803-3.427,2.803-4.996c0.148-0.233,0.459-0.299,0.69-0.153c0.233,0.148,0.302,0.458,0.153,0.69    c-0.98,1.539-1.905,3.188-2.749,4.901C26.99,52.397,26.813,52.5,26.628,52.5z"/></g><g><path class="st1" d="M31.399,44.659c-0.104,0-0.208-0.032-0.298-0.099c-0.222-0.165-0.267-0.479-0.102-0.7    c1.106-1.483,2.313-2.917,3.589-4.265c0.19-0.201,0.507-0.208,0.707-0.02c0.201,0.19,0.209,0.506,0.02,0.707    c-1.249,1.319-2.431,2.724-3.514,4.175C31.703,44.59,31.552,44.659,31.399,44.659z"/></g><g><path class="st1" d="M37.532,37.909c-0.136,0-0.271-0.055-0.37-0.164c-0.186-0.204-0.171-0.52,0.033-0.706    c1.028-0.936,2.121-1.854,3.25-2.726c0.219-0.17,0.532-0.128,0.701,0.09s0.129,0.532-0.09,0.701    c-1.108,0.856-2.181,1.756-3.189,2.674C37.773,37.866,37.652,37.909,37.532,37.909z"/></g><g><path class="st1" d="M29.099,53.5c-0.078,0-0.156-0.018-0.229-0.056c-0.245-0.127-0.341-0.429-0.214-0.674    c0.715-1.38,1.488-2.723,2.296-3.993c0.149-0.233,0.458-0.3,0.69-0.153c0.233,0.148,0.301,0.458,0.153,0.69    c-0.793,1.245-1.551,2.562-2.252,3.916C29.455,53.402,29.28,53.5,29.099,53.5z"/></g><g><path class="st1" d="M33.445,46.552c-0.104,0-0.209-0.033-0.299-0.1c-0.221-0.166-0.266-0.479-0.1-0.7    c0.987-1.316,2.059-2.599,3.185-3.813c0.188-0.203,0.504-0.215,0.707-0.026c0.202,0.188,0.214,0.504,0.026,0.707    c-1.103,1.188-2.152,2.444-3.119,3.732C33.748,46.483,33.597,46.552,33.445,46.552z"/></g><g><path class="st1" d="M39.201,40.182c-0.134,0-0.268-0.054-0.367-0.16c-0.188-0.203-0.176-0.519,0.027-0.707    c0.442-0.41,0.898-0.817,1.367-1.22c0.211-0.18,0.526-0.156,0.705,0.053c0.18,0.209,0.157,0.525-0.053,0.705    c-0.46,0.396-0.906,0.794-1.34,1.196C39.444,40.138,39.322,40.182,39.201,40.182z"/></g><g><path class="st1" d="M31.815,53.5c-0.088,0-0.177-0.023-0.258-0.072c-0.236-0.143-0.312-0.45-0.169-0.687    c0.396-0.654,0.81-1.303,1.243-1.949c0.153-0.229,0.465-0.292,0.694-0.136c0.229,0.154,0.29,0.464,0.136,0.694    c-0.425,0.632-0.83,1.269-1.218,1.909C32.15,53.414,31.984,53.5,31.815,53.5z"/></g><g><path class="st1" d="M35.249,48.555c-0.109,0-0.218-0.035-0.31-0.108c-0.216-0.171-0.253-0.486-0.081-0.702    c0.901-1.137,1.868-2.247,2.874-3.299c0.191-0.199,0.508-0.207,0.707-0.016c0.2,0.19,0.207,0.507,0.016,0.707    c-0.984,1.031-1.931,2.117-2.813,3.229C35.542,48.49,35.396,48.555,35.249,48.555z"/></g><g><path class="st1" d="M36.98,50.852c-0.107,0-0.216-0.035-0.307-0.106c-0.218-0.169-0.256-0.484-0.086-0.702    c0.784-1.005,1.623-1.994,2.491-2.939c0.188-0.204,0.504-0.216,0.707-0.03c0.203,0.187,0.217,0.503,0.03,0.707    c-0.85,0.925-1.671,1.893-2.439,2.877C37.276,50.786,37.129,50.852,36.98,50.852z"/></g><g><path class="st1" d="M19,53.5c-0.276,0-0.5-0.224-0.5-0.5V29.5h-7V53c0,0.276-0.224,0.5-0.5,0.5s-0.5-0.224-0.5-0.5V29    c0-0.276,0.224-0.5,0.5-0.5h8c0.276,0,0.5,0.224,0.5,0.5v24C19.5,53.276,19.276,53.5,19,53.5z"/></g><g><path class="st1" d="M21,37.5h-2c-0.276,0-0.5-0.224-0.5-0.5s0.224-0.5,0.5-0.5h2c0.276,0,0.5,0.224,0.5,0.5S21.276,37.5,21,37.5z    "/></g><g><path class="st1" d="M54,53.5c-0.276,0-0.5-0.224-0.5-0.5V25.5h-9V53c0,0.276-0.224,0.5-0.5,0.5s-0.5-0.224-0.5-0.5V25    c0-0.276,0.224-0.5,0.5-0.5h10c0.276,0,0.5,0.224,0.5,0.5v28C54.5,53.276,54.276,53.5,54,53.5z"/></g><g><path class="st1" d="M44,42.5h-2c-0.276,0-0.5-0.224-0.5-0.5s0.224-0.5,0.5-0.5h2c0.276,0,0.5,0.224,0.5,0.5S44.276,42.5,44,42.5z    "/></g><g><path class="st1" d="M54,25.5H44c-0.202,0-0.385-0.122-0.462-0.309c-0.078-0.187-0.035-0.402,0.108-0.545l2-2    C45.74,22.553,45.867,22.5,46,22.5h6c0.133,0,0.26,0.053,0.354,0.146l2,2c0.143,0.143,0.186,0.358,0.108,0.545    C54.385,25.378,54.202,25.5,54,25.5z M45.207,24.5h7.586l-1-1h-5.586L45.207,24.5z"/></g><g><path class="st1" d="M52,23.5h-6c-0.202,0-0.385-0.122-0.462-0.309c-0.078-0.187-0.035-0.402,0.108-0.545l3-3    c0.195-0.195,0.512-0.195,0.707,0l3,3c0.143,0.143,0.186,0.358,0.108,0.545C52.385,23.378,52.202,23.5,52,23.5z M47.207,22.5    h3.586L49,20.707L47.207,22.5z"/></g><g><path class="st1" d="M49,20.5c-0.276,0-0.5-0.224-0.5-0.5v-4c0-0.276,0.224-0.5,0.5-0.5s0.5,0.224,0.5,0.5v4    C49.5,20.276,49.276,20.5,49,20.5z"/></g><g><path class="st1" d="M17,32.5h-4c-0.276,0-0.5-0.224-0.5-0.5s0.224-0.5,0.5-0.5h4c0.276,0,0.5,0.224,0.5,0.5S17.276,32.5,17,32.5z    "/></g><g><path class="st1" d="M17,35.5h-4c-0.276,0-0.5-0.224-0.5-0.5s0.224-0.5,0.5-0.5h4c0.276,0,0.5,0.224,0.5,0.5S17.276,35.5,17,35.5z    "/></g><g><path class="st1" d="M17,39.5h-4c-0.276,0-0.5-0.224-0.5-0.5s0.224-0.5,0.5-0.5h4c0.276,0,0.5,0.224,0.5,0.5S17.276,39.5,17,39.5z    "/></g><g><path class="st1" d="M17,43.5h-4c-0.276,0-0.5-0.224-0.5-0.5s0.224-0.5,0.5-0.5h4c0.276,0,0.5,0.224,0.5,0.5S17.276,43.5,17,43.5z    "/></g><g><path class="st1" d="M17,47.5h-4c-0.276,0-0.5-0.224-0.5-0.5s0.224-0.5,0.5-0.5h4c0.276,0,0.5,0.224,0.5,0.5S17.276,47.5,17,47.5z    "/></g><g><path class="st1" d="M17,51.5h-4c-0.276,0-0.5-0.224-0.5-0.5s0.224-0.5,0.5-0.5h4c0.276,0,0.5,0.224,0.5,0.5S17.276,51.5,17,51.5z    "/></g><g><path class="st1" d="M49,28.5h-3c-0.276,0-0.5-0.224-0.5-0.5s0.224-0.5,0.5-0.5h3c0.276,0,0.5,0.224,0.5,0.5S49.276,28.5,49,28.5z    "/></g><g><path class="st1" d="M52,28.5h-1c-0.276,0-0.5-0.224-0.5-0.5s0.224-0.5,0.5-0.5h1c0.276,0,0.5,0.224,0.5,0.5S52.276,28.5,52,28.5z    "/></g><g><path class="st1" d="M49,32.5h-3c-0.276,0-0.5-0.224-0.5-0.5s0.224-0.5,0.5-0.5h3c0.276,0,0.5,0.224,0.5,0.5S49.276,32.5,49,32.5z    "/></g><g><path class="st1" d="M52,32.5h-1c-0.276,0-0.5-0.224-0.5-0.5s0.224-0.5,0.5-0.5h1c0.276,0,0.5,0.224,0.5,0.5S52.276,32.5,52,32.5z    "/></g><g><path class="st1" d="M49,36.5h-3c-0.276,0-0.5-0.224-0.5-0.5s0.224-0.5,0.5-0.5h3c0.276,0,0.5,0.224,0.5,0.5S49.276,36.5,49,36.5z    "/></g><g><path class="st1" d="M52,36.5h-1c-0.276,0-0.5-0.224-0.5-0.5s0.224-0.5,0.5-0.5h1c0.276,0,0.5,0.224,0.5,0.5S52.276,36.5,52,36.5z    "/></g><g><path class="st1" d="M49,40.5h-3c-0.276,0-0.5-0.224-0.5-0.5s0.224-0.5,0.5-0.5h3c0.276,0,0.5,0.224,0.5,0.5S49.276,40.5,49,40.5z    "/></g><g><path class="st1" d="M52,40.5h-1c-0.276,0-0.5-0.224-0.5-0.5s0.224-0.5,0.5-0.5h1c0.276,0,0.5,0.224,0.5,0.5S52.276,40.5,52,40.5z    "/></g><g><path class="st1" d="M49,44.5h-3c-0.276,0-0.5-0.224-0.5-0.5s0.224-0.5,0.5-0.5h3c0.276,0,0.5,0.224,0.5,0.5S49.276,44.5,49,44.5z    "/></g><g><path class="st1" d="M52,44.5h-1c-0.276,0-0.5-0.224-0.5-0.5s0.224-0.5,0.5-0.5h1c0.276,0,0.5,0.224,0.5,0.5S52.276,44.5,52,44.5z    "/></g><g><path class="st1" d="M49,48.5h-3c-0.276,0-0.5-0.224-0.5-0.5s0.224-0.5,0.5-0.5h3c0.276,0,0.5,0.224,0.5,0.5S49.276,48.5,49,48.5z    "/></g><g><path class="st1" d="M52,48.5h-1c-0.276,0-0.5-0.224-0.5-0.5s0.224-0.5,0.5-0.5h1c0.276,0,0.5,0.224,0.5,0.5S52.276,48.5,52,48.5z    "/></g><g><path class="st1" d="M49,51.5h-3c-0.276,0-0.5-0.224-0.5-0.5s0.224-0.5,0.5-0.5h3c0.276,0,0.5,0.224,0.5,0.5S49.276,51.5,49,51.5z    "/></g><g><path class="st1" d="M52,51.5h-1c-0.276,0-0.5-0.224-0.5-0.5s0.224-0.5,0.5-0.5h1c0.276,0,0.5,0.224,0.5,0.5S52.276,51.5,52,51.5z    "/></g><g><path class="st1" d="M17,20.5h-6c-0.276,0-0.5-0.224-0.5-0.5s0.224-0.5,0.5-0.5h6c0.276,0,0.5,0.224,0.5,0.5S17.276,20.5,17,20.5z    "/></g><g><path class="st1" d="M39,53.5c-0.04,0-0.081-0.005-0.122-0.015c-0.268-0.067-0.431-0.338-0.364-0.606l0.546-2.185    c0.293-1.175,0.474-2.383,0.537-3.589l1.289-24.486c0.186-3.526-0.622-7.019-2.336-10.119H25.449    c-1.715,3.1-2.522,6.593-2.336,10.119l1.289,24.486c0.063,1.207,0.244,2.414,0.537,3.589l0.546,2.185    c0.067,0.268-0.096,0.539-0.364,0.606c-0.269,0.066-0.539-0.096-0.606-0.364l-0.546-2.185c-0.31-1.237-0.5-2.509-0.566-3.779    l-1.289-24.485c-0.2-3.815,0.702-7.591,2.609-10.92c0.089-0.156,0.255-0.251,0.434-0.251h13.688c0.179,0,0.345,0.096,0.434,0.251    c1.907,3.329,2.809,7.105,2.609,10.92l-1.289,24.486c-0.066,1.27-0.257,2.542-0.566,3.779l-0.546,2.185    C39.428,53.349,39.225,53.5,39,53.5z"/></g><g><path class="st1" d="M49,9.5h-6c-0.276,0-0.5-0.224-0.5-0.5s0.224-0.5,0.5-0.5h6c0.276,0,0.5,0.224,0.5,0.5S49.276,9.5,49,9.5z"/></g></g></svg>