<?xml version="1.0" encoding="utf-8"?>

<!--
 * Copyright (c) 2020, WSO2 Inc. (http://www.wso2.org) All Rights Reserved.
 *
 * WSO2 Inc. licenses this file to you under the Apache License,
 * Version 2.0 (the "License"); you may not use this file except
 * in compliance with the License.
 * You may obtain a copy of the License at
 *
 *     http://www.apache.org/licenses/LICENSE-2.0
 *
 * Unless required by applicable law or agreed to in writing,
 * software distributed under the License is distributed on an
 * "AS IS" BASIS, WITHOUT WARRANTIES OR CONDITIONS OF ANY
 * KIND, either express or implied. See the License for the
 * specific language governing permissions and limitations
 * under the License.
-->

<svg xmlns="http://www.w3.org/2000/svg" class="icon"
     width="100" height="100"
     viewBox="0 0 68.715 66.98">
  <g id="enterprise-idp-illustration" transform="translate(-1.498 -17.562)">
    <g id="Group_25" data-name="Group 25" transform="translate(0 17.708)">
      <g id="Group_23" data-name="Group 23" transform="translate(0 0)">
        <g id="Group_22" data-name="Group 22" transform="translate(4.529)">
          <g id="Group_21" data-name="Group 21">
            <path id="Path_46" data-name="Path 46" d="M232.923,232.749v32.962h25.953V232.718Z" transform="translate(-204.788 -202.593)" fill="#d7e2de"/>
            <path id="Path_47" data-name="Path 47" d="M402.585,232.718v32.993h9.122V232.749Z" transform="translate(-348.964 -202.593)" fill="#bec8c5"/>
            <g id="Group_20" data-name="Group 20">
              <g id="Group_19" data-name="Group 19">
                <g id="Group_14" data-name="Group 14" transform="translate(2.796)">
                  <path id="Path_48" data-name="Path 48" d="M52.228,17.562v7.444L75.762,26.85V19.389Z" transform="translate(-52.228 -17.708)" fill="#d7e2de"/>
                </g>
                <path id="Path_49" data-name="Path 49" d="M208.636,28.826v7.456l9.14.716V29.536Z" transform="translate(-182.98 -27.193)" fill="#bec8c5"/>
                <path id="Path_50" data-name="Path 50" d="M61.418,53.877,32.293,51.734v58.375H61.418v-54.7C61.418,54.764,61.906,54.236,61.418,53.877Z" transform="translate(-32.293 -46.991)" fill="#ff7300"/>
                <path id="Path_51" data-name="Path 51" d="M229.732,66.093v56.278h9.14V66.831Z" transform="translate(-201.281 -59.253)" fill="#d76303"/>
                <g id="Group_18" data-name="Group 18" transform="translate(4.567 13.943)">
                  <g id="Group_15" data-name="Group 15">
                    <path id="Path_52" data-name="Path 52" d="M70.821,122.079H64.863v-4.947h5.958v4.161C70.821,121.727,70.821,122.079,70.821,122.079Z" transform="translate(-64.863 -117.132)" fill="#ffe073"/>
                    <path id="Path_75" data-name="Path 75" d="M70.821,122.079H64.863v-4.947h5.958v4.161C70.821,121.727,70.821,122.079,70.821,122.079Z" transform="translate(-64.863 -107.388)" fill="#ffe073"/>
                    <path id="Path_77" data-name="Path 77" d="M70.821,122.079H64.863v-4.947h5.958v4.161C70.821,121.727,70.821,122.079,70.821,122.079Z" transform="translate(-64.863 -97.648)" fill="#ffe073"/>
                    <path id="Path_54" data-name="Path 54" d="M223.505,117.132h-2.687v4.947h2.687Z" transform="translate(-198.948 -117.132)" fill="#ffe073"/>
                    <path id="Path_78" data-name="Path 78" d="M223.505,117.132h-2.687v4.947h2.687Z" transform="translate(-198.948 -107.388)" fill="#ffe073"/>
                    <path id="Path_79" data-name="Path 79" d="M223.505,117.132h-2.687v4.947h2.687Z" transform="translate(-198.948 -97.648)" fill="#ffe073"/>
                    <path id="Path_73" data-name="Path 73" d="M70.821,122.079H64.863v-4.947h5.958v4.161C70.821,121.727,70.821,122.079,70.821,122.079Z" transform="translate(-53.863 -117.132)" fill="#ffe073"/>
                    <path id="Path_74" data-name="Path 74" d="M70.821,122.079H64.863v-4.947h5.958v4.161C70.821,121.727,70.821,122.079,70.821,122.079Z" transform="translate(-53.863 -107.388)" fill="#ffe073"/>
                    <path id="Path_76" data-name="Path 76" d="M70.821,122.079H64.863v-4.947h5.958v4.161C70.821,121.727,70.821,122.079,70.821,122.079Z" transform="translate(-53.863 -97.648)" fill="#ffe073"/>
                  </g>
                  <g id="Group_17" data-name="Group 17" transform="translate(0 19.485)">
                    <path id="Path_59" data-name="Path 59" d="M75.567,339.809h-10.7v-4.947h11.7v4.947Z" transform="translate(-64.864 -323.813)" fill="#ffe073"/>
                  </g>
                </g>
              </g>
              <path id="Path_62" data-name="Path 62" d="M181.47,334.862V353.5h8.205V334.862Z" transform="translate(-160.55 -290.386)" fill="#d7e2de"/>
              <path id="Path_63" data-name="Path 63" d="M235.174,334.862V353.5h3.945V334.862Z" transform="translate(-206.723 -290.386)" fill="#bec8c5"/>
            </g>
          </g>
        </g>
        <path id="Path_64" data-name="Path 64" d="M1.5,458.107v5.056l61.107.128.241-.322v-4.735Z" transform="translate(0 -396.457)" fill="#efc984"/>
        <path id="Path_65" data-name="Path 65" d="M438.536,458.235h-7.608v5.056h7.608Z" transform="translate(-368.323 -396.457)" fill="#e8ae4d"/>
      </g>
      <g id="Group_24" data-name="Group 24" transform="translate(32.98 13.943)">
        <path id="Path_66" data-name="Path 66" d="M239.118,122.079v-4.947h-3.945v4.947h3.945Z" transform="translate(-235.173 -117.132)" fill="#ffd952"/>
        <path id="Path_80" data-name="Path 80" d="M239.118,122.079v-4.947h-3.945v4.947h3.945Z" transform="translate(-235.173 -107.388)" fill="#ffd952"/>
        <path id="Path_81" data-name="Path 81" d="M239.118,122.079v-4.947h-3.945v4.947h3.945Z" transform="translate(-235.173 -97.648)" fill="#ffd952"/>
      </g>
    </g>
    <g id="Group_28" data-name="Group 28" transform="translate(46.569 55.315)">
      <g id="Group_26" data-name="Group 26" transform="translate(0 0)">
        <path id="Path_82" data-name="Path 82" d="M71.1,122.462h-6.24v-5.33H71.1v4.483C71.1,122.083,71.1,122.462,71.1,122.462Z" transform="translate(-64.863 -117.131)" fill="#ffe073"/>
        <path id="Path_83" data-name="Path 83" d="M71.1,122.462h-6.24v-5.33H71.1v4.483C71.1,122.083,71.1,122.462,71.1,122.462Z" transform="translate(-64.863 -107.131)" fill="#ffe073"/>
      </g>
      <g id="Group_27" data-name="Group 27" transform="translate(10.078 0)">
        <path id="Path_84" data-name="Path 84" d="M71.1,122.462h-6.24v-5.33H71.1v4.483C71.1,122.083,71.1,122.462,71.1,122.462Z" transform="translate(-64.861 -107.131)" fill="#ffe073"/>
        <path id="Path_85" data-name="Path 85" d="M71.1,122.462h-6.24v-5.33H71.1v4.483C71.1,122.083,71.1,122.462,71.1,122.462Z" transform="translate(-64.861 -117.131)" fill="#ffe073"/>
      </g>
    </g>
  </g>
</svg>
