<!--
 * Copyright (c) 2020, WSO2 Inc. (http://www.wso2.org) All Rights Reserved.
 *
 * WSO2 Inc. licenses this file to you under the Apache License,
 * Version 2.0 (the "License"); you may not use this file except
 * in compliance with the License.
 * You may obtain a copy of the License at
 *
 *     http://www.apache.org/licenses/LICENSE-2.0
 *
 * Unless required by applicable law or agreed to in writing,
 * software distributed under the License is distributed on an
 * "AS IS" BASIS, WITHOUT WARRANTIES OR CONDITIONS OF ANY
 * KIND, either express or implied. See the License for the
 * specific language governing permissions and limitations
 * under the License.
-->

<svg version="1.1" id="facebook-logo" class="icon" width="100" height="100" xmlns="http://www.w3.org/2000/svg" xmlns:xlink="http://www.w3.org/1999/xlink" x="0px" y="0px" viewBox="0 0 512 512" xml:space="preserve">
    <path style="fill:#1976D2;" d="M448,0H64C28.704,0,0,28.704,0,64v384c0,35.296,28.704,64,64,64h384c35.296,0,64-28.704,64-64V64
        C512,28.704,483.296,0,448,0z" />
    <path style="fill:#FAFAFA;" d="M432,256h-80v-64c0-17.664,14.336-16,32-16h32V96h-64l0,0c-53.024,0-96,42.976-96,96v64h-64v80h64
        v176h96V336h48L432,256z" />
</svg>
